<mxfile host="app.diagrams.net" agent="Mozilla/5.0 (Windows NT 10.0; Win64; x64; rv:139.0) Gecko/20100101 Firefox/139.0" version="27.1.6">
  <diagram name="Страница — 1" id="Erw--blzMtKx47dPTSw3">
    <mxGraphModel dx="1084" dy="605" grid="1" gridSize="10" guides="1" tooltips="1" connect="1" arrows="1" fold="1" page="1" pageScale="1" pageWidth="1169" pageHeight="827" math="0" shadow="0">
      <root>
        <mxCell id="0" />
        <mxCell id="1" parent="0" />
        <mxCell id="3eAIcPBEeX4sZWYrnUCx-1" value="SIPp uac.xml" style="text;strokeColor=none;align=center;fillColor=none;html=1;verticalAlign=middle;whiteSpace=wrap;rounded=0;" parent="1" vertex="1">
          <mxGeometry x="317" y="539" width="110" height="30" as="geometry" />
        </mxCell>
        <mxCell id="3eAIcPBEeX4sZWYrnUCx-2" value="SIPp uas.xml" style="text;strokeColor=none;align=center;fillColor=none;html=1;verticalAlign=middle;whiteSpace=wrap;rounded=0;" parent="1" vertex="1">
          <mxGeometry x="741.5" y="539" width="110" height="30" as="geometry" />
        </mxCell>
        <mxCell id="3eAIcPBEeX4sZWYrnUCx-3" value="" style="shape=mxgraph.cisco.modems_and_phones.softphone;sketch=0;html=1;pointerEvents=1;dashed=0;fillColor=#036897;strokeColor=#ffffff;strokeWidth=2;verticalLabelPosition=bottom;verticalAlign=top;align=center;outlineConnect=0;" parent="1" vertex="1">
          <mxGeometry x="766" y="459" width="61" height="56" as="geometry" />
        </mxCell>
        <mxCell id="3eAIcPBEeX4sZWYrnUCx-4" value="" style="shape=mxgraph.cisco.modems_and_phones.softphone;sketch=0;html=1;pointerEvents=1;dashed=0;fillColor=#036897;strokeColor=#ffffff;strokeWidth=2;verticalLabelPosition=bottom;verticalAlign=top;align=center;outlineConnect=0;" parent="1" vertex="1">
          <mxGeometry x="341.5" y="459" width="61" height="56" as="geometry" />
        </mxCell>
        <mxCell id="3eAIcPBEeX4sZWYrnUCx-5" value="" style="shape=mxgraph.cisco.misc.cisco_unity_express;sketch=0;html=1;pointerEvents=1;dashed=0;fillColor=#036897;strokeColor=#ffffff;strokeWidth=2;verticalLabelPosition=bottom;verticalAlign=top;align=center;outlineConnect=0;" parent="1" vertex="1">
          <mxGeometry x="549" y="259" width="77" height="67" as="geometry" />
        </mxCell>
        <mxCell id="3eAIcPBEeX4sZWYrnUCx-6" value="" style="endArrow=classic;html=1;rounded=0;" parent="1" source="3eAIcPBEeX4sZWYrnUCx-4" target="3eAIcPBEeX4sZWYrnUCx-5" edge="1">
          <mxGeometry relative="1" as="geometry">
            <mxPoint x="541.5" y="419" as="sourcePoint" />
            <mxPoint x="701.5" y="419" as="targetPoint" />
          </mxGeometry>
        </mxCell>
        <mxCell id="3eAIcPBEeX4sZWYrnUCx-7" value="CALL FLOW" style="edgeLabel;resizable=0;html=1;;align=center;verticalAlign=middle;" parent="3eAIcPBEeX4sZWYrnUCx-6" connectable="0" vertex="1">
          <mxGeometry relative="1" as="geometry" />
        </mxCell>
        <mxCell id="3eAIcPBEeX4sZWYrnUCx-8" value="" style="endArrow=classic;html=1;rounded=0;" parent="1" source="3eAIcPBEeX4sZWYrnUCx-5" target="3eAIcPBEeX4sZWYrnUCx-3" edge="1">
          <mxGeometry relative="1" as="geometry">
            <mxPoint x="541.5" y="419" as="sourcePoint" />
            <mxPoint x="701.5" y="419" as="targetPoint" />
          </mxGeometry>
        </mxCell>
        <mxCell id="3eAIcPBEeX4sZWYrnUCx-9" value="CALL FLOW" style="edgeLabel;resizable=0;html=1;;align=center;verticalAlign=middle;" parent="3eAIcPBEeX4sZWYrnUCx-8" connectable="0" vertex="1">
          <mxGeometry relative="1" as="geometry" />
        </mxCell>
        <mxCell id="3eAIcPBEeX4sZWYrnUCx-10" value="Kamailio" style="text;strokeColor=none;align=center;fillColor=none;html=1;verticalAlign=middle;whiteSpace=wrap;rounded=0;" parent="1" vertex="1">
          <mxGeometry x="555" y="350" width="60" height="30" as="geometry" />
        </mxCell>
        <UserObject label="sudo apt install kamailio sip-tester sngrep -y" link="https://sipp.readthedocs.io/en/latest/" id="Ddu2mmI_zF8PH8FrGgqN-1">
          <mxCell style="text;whiteSpace=wrap;fontSize=15;" vertex="1" parent="1">
            <mxGeometry x="20" y="85" width="310" height="40" as="geometry" />
          </mxCell>
        </UserObject>
        <mxCell id="Ddu2mmI_zF8PH8FrGgqN-2" value="&lt;u&gt;Запустите SIPp UAS (сервер):&lt;br&gt;&lt;/u&gt;sipp -aa -sn uas -p 5065&lt;br&gt;&lt;u&gt;&lt;br&gt;&lt;/u&gt;&lt;div&gt;&lt;u&gt;Запустите SIPp UAC (клиент):&lt;/u&gt;&lt;/div&gt;&lt;div&gt;sipp 172.30.1.2:5065 -sn uac -rsa 172.30.1.2:5060 -d 3000 -r 1&lt;/div&gt;&lt;u&gt;&lt;br&gt;&lt;/u&gt;" style="text;whiteSpace=wrap;html=1;fontSize=15;" vertex="1" parent="1">
          <mxGeometry x="20" y="120" width="570" height="110" as="geometry" />
        </mxCell>
        <UserObject label="sed -i &#39;s/route.AUTH./route\(RELAY\)/&#39; /etc/kamailio/kamailio.cfg&#xa;kamctl restart" link="/* add local domain aliases - it can be set many times */&#xa;alias=&quot;sip.mydomain.com&quot;" id="Ddu2mmI_zF8PH8FrGgqN-3">
          <mxCell style="text;whiteSpace=wrap;fontSize=15;" vertex="1" parent="1">
            <mxGeometry x="626" y="150" width="460" height="70" as="geometry" />
          </mxCell>
        </UserObject>
        <UserObject label="kamailio.cfg" link="kamailio.cfg" id="Ddu2mmI_zF8PH8FrGgqN-4">
          <mxCell style="text;whiteSpace=wrap;fontSize=20;fontStyle=4" vertex="1" parent="1">
            <mxGeometry x="626" y="100" width="100" height="40" as="geometry" />
          </mxCell>
        </UserObject>
        <mxCell id="Ddu2mmI_zF8PH8FrGgqN-9" value="Debug" style="text;html=1;align=center;verticalAlign=middle;whiteSpace=wrap;rounded=0;fontSize=20;fontStyle=4" vertex="1" parent="1">
          <mxGeometry x="766" y="200" width="60" height="30" as="geometry" />
        </mxCell>
        <mxCell id="Ddu2mmI_zF8PH8FrGgqN-10" value="Install Debuger module" style="text;html=1;align=left;verticalAlign=middle;whiteSpace=wrap;rounded=0;fontSize=20;fontStyle=4" vertex="1" parent="1">
          <mxGeometry x="20" y="240" width="210" height="30" as="geometry" />
        </mxCell>
        <mxCell id="Ddu2mmI_zF8PH8FrGgqN-11" value="kamctl srv version&#xa;wget https://www.kamailio.org/pub/kamailio/5.7.4/src/kamailio-5.7.4_src.tar.gz&#xa;tar -x -zf kamailio-5.7.4_src.tar.gz &amp;&amp; cd kamailio-5.7.4&#xa;make modules modules=src/modules/debugger/&#xa;&#xa;make install-modules modules=src/modules/debugger/ LIBDIR=usr/lib/x86_64-linux-gnu MYSQLON=yes modules_prefix= bin_target=/usr/sbin lib_dir=/usr/lib/x86_64-linux-gnu/kamailio data_target=/usr/share/kamailio&#xa;&#xa;vi /etc/kamailio/kamailio.cfg&#xa;    #!define WITH_DEBUG&#xa;    &#xa;kamctl restart&#xa;&#xa;&#xa;" style="text;whiteSpace=wrap;" vertex="1" parent="1">
          <mxGeometry x="20" y="270" width="450" height="200" as="geometry" />
        </mxCell>
        <mxCell id="Ddu2mmI_zF8PH8FrGgqN-12" value="journalctl /usr/sbin/kamailio" style="text;whiteSpace=wrap;html=1;" vertex="1" parent="1">
          <mxGeometry x="766" y="230" width="180" height="40" as="geometry" />
        </mxCell>
      </root>
    </mxGraphModel>
  </diagram>
</mxfile>
